<svg width="400" height="400" viewBox="0 0 400 400" fill="none" xmlns="http://www.w3.org/2000/svg">
<g clip-path="url(#clip0)">
<rect width="400" height="400" fill="#F26C4F"/>
<path d="M80.46 363H196.94V331.02H116.86V186.2H80.46V363ZM300.812 365.34C334.872 365.34 359.312 350.26 374.652 326.34L346.312 306.84C336.432 321.92 323.692 332.84 300.812 332.84C268.832 332.84 247.252 307.62 247.252 274.6C247.252 241.58 268.832 216.88 300.812 216.88C321.092 216.88 335.392 226.5 343.712 240.02L371.532 220.26C355.672 195.56 332.792 184.12 300.812 184.12C250.112 184.12 209.812 222.34 209.812 274.6C209.812 326.86 250.112 365.34 300.812 365.34Z" fill="#1B325F"/>
</g>
<defs>
<clipPath id="clip0">
<path d="M0 0H400V400H0V0Z" fill="white"/>
</clipPath>
</defs>
</svg>
