<?xml version="1.0" standalone="no"?>
<!DOCTYPE svg PUBLIC "-//W3C//DTD SVG 20010904//EN"
 "http://www.w3.org/TR/2001/REC-SVG-20010904/DTD/svg10.dtd">
<svg version="1.0" xmlns="http://www.w3.org/2000/svg"
 width="400.000000pt" height="400.000000pt" viewBox="0 0 400.000000 400.000000"
 preserveAspectRatio="xMidYMid meet">
<metadata>
Created by potrace 1.11, written by Peter Selinger 2001-2013
</metadata>
<g transform="translate(0.000000,400.000000) scale(0.100000,-0.100000)"
fill="#000000" stroke="none">
<path d="M0 2000 l0 -2000 2000 0 2000 0 0 400 0 400 -1325 0 -1325 0 0 1600
0 1600 -675 0 -675 0 0 -2000z"/>
<path d="M1990 2720 l0 -1280 1005 0 1005 0 0 320 0 320 -685 0 -685 0 0 640
0 640 685 0 685 0 0 320 0 320 -1005 0 -1005 0 0 -1280z"/>
</g>
</svg>
